<?xml version="1.0" encoding="utf-8"?>
<svg viewBox="0 0 135.32 40.695" xmlns="http://www.w3.org/2000/svg">
  <defs>
    <linearGradient id="paint0_linear" x1="0" y1="0" x2="0" y2="32" gradientUnits="userSpaceOnUse" gradientTransform="matrix(0.99316, 0, 0, 1.050416, 4.413832, 3.269308)">
      <stop stop-color="#BBBBBB" stop-opacity="0.1"/>
      <stop offset="1" stop-opacity="0.1"/>
    </linearGradient>
  </defs>
  <path d="M 125.96 3.884 L 34.96 3.884 L 34.96 35.884 L 125.96 35.884 C 128.721 35.884 130.96 33.646 130.96 30.884 L 130.96 8.884 C 130.96 6.123 128.721 3.884 125.96 3.884 Z" fill="#0F1418"/>
  <path d="M 35.546 3.884 L 9.546 3.884 C 6.784 3.884 4.546 6.164 4.546 8.976 L 4.546 31.379 C 4.546 34.19 6.784 36.47 9.546 36.47 L 35.546 36.47 L 35.546 3.884 Z" style="fill: rgb(245, 245, 245);"/>
  <path d="M 125.579 3.271 L 9.38 3.271 C 6.637 3.271 4.414 5.623 4.414 8.523 L 4.414 31.632 C 4.414 34.532 6.637 36.884 9.38 36.884 L 125.579 36.884 C 128.321 36.884 130.545 34.532 130.545 31.632 L 130.545 8.523 C 130.545 5.623 128.321 3.271 125.579 3.271 Z" fill="url(#paint0_linear)" style=""/>
  <text style="fill: rgb(255, 255, 255); font-family: Calibri; font-size: 18px; font-weight: 700; white-space: pre;" x="39.52" y="24.812">Spring Boot</text>
  <path fill="#6DB33F" opacity="1.000000" stroke="none" d="M 12.255 26.415 C 11.391 24.81 10.538 23.232 9.686 21.653 C 9.208 20.763 9.205 19.868 9.682 18.979 C 11.004 16.527 12.325 14.076 13.656 11.629 C 14.129 10.763 14.844 10.31 15.796 10.31 C 18.461 10.31 21.127 10.31 23.793 10.31 C 24.743 10.311 25.456 10.766 25.928 11.634 C 27.254 14.068 28.572 16.508 29.885 18.948 C 30.371 19.847 30.378 20.762 29.892 21.662 C 28.573 24.116 27.25 26.565 25.919 29.012 C 25.444 29.883 24.704 30.337 23.774 30.343 C 21.122 30.364 18.469 30.362 15.817 30.343 C 14.887 30.337 14.15 29.89 13.669 29.021 C 13.195 28.166 12.737 27.302 12.255 26.415 M 15.93 15.341 C 14.649 16.597 13.985 18.157 14.001 20.009 C 14.026 22.524 15.497 24.74 17.682 25.647 C 19.862 26.555 22.308 25.953 23.948 24.106 C 26.251 21.51 25.934 17.251 23.276 15.077 C 22.895 14.764 22.554 14.739 22.25 14.997 C 21.836 15.347 21.883 15.924 22.345 16.334 C 23.637 17.476 24.188 18.929 23.923 20.708 C 23.65 22.566 22.254 24.046 20.476 24.39 C 18.755 24.723 16.969 23.834 16.079 22.2 C 15.19 20.568 15.345 18.457 16.474 17.044 C 16.707 16.752 16.994 16.509 17.256 16.243 C 17.58 15.914 17.616 15.478 17.347 15.13 C 17.098 14.807 16.682 14.746 16.335 14.993 C 16.208 15.085 16.091 15.197 15.93 15.341 M 20.591 19.863 C 20.591 18.124 20.593 16.384 20.591 14.642 C 20.589 14.009 20.271 13.619 19.761 13.613 C 19.256 13.607 18.902 13.998 18.9 14.614 C 18.891 16.355 18.892 18.095 18.9 19.835 C 18.902 20.396 19.242 20.798 19.701 20.83 C 20.158 20.86 20.508 20.509 20.591 19.863 Z" style=""/>
  <path fill="#FDFEFC" opacity="1.000000" stroke="none" d="M 15.949 15.32 C 16.091 15.197 16.208 15.085 16.335 14.993 C 16.682 14.746 17.098 14.807 17.347 15.13 C 17.616 15.478 17.58 15.914 17.256 16.243 C 16.994 16.509 16.707 16.752 16.474 17.044 C 15.345 18.457 15.19 20.568 16.079 22.2 C 16.969 23.834 18.755 24.723 20.476 24.39 C 22.254 24.046 23.65 22.566 23.923 20.708 C 24.188 18.929 23.637 17.476 22.345 16.334 C 21.883 15.924 21.836 15.347 22.25 14.997 C 22.554 14.739 22.895 14.764 23.276 15.077 C 25.934 17.251 26.251 21.51 23.948 24.106 C 22.308 25.953 19.862 26.555 17.682 25.647 C 15.497 24.74 14.026 22.524 14.001 20.009 C 13.985 18.157 14.649 16.597 15.949 15.32 Z" style=""/>
  <path fill="#FCFDFB" opacity="1.000000" stroke="none" d="M 20.591 19.902 C 20.508 20.509 20.158 20.86 19.701 20.83 C 19.242 20.798 18.902 20.396 18.9 19.835 C 18.892 18.095 18.891 16.355 18.9 14.614 C 18.902 13.998 19.256 13.607 19.761 13.613 C 20.271 13.619 20.589 14.009 20.591 14.642 C 20.593 16.384 20.591 18.124 20.591 19.902 Z" style=""/>
</svg>