<?xml version="1.0" encoding="utf-8"?>
<svg viewBox="0 0 500 500" xmlns="http://www.w3.org/2000/svg">
  <defs>
    <linearGradient id="paint0_linear" x1="0" y1="0" x2="0" y2="32" gradientUnits="userSpaceOnUse" gradientTransform="matrix(0.99316, 0, 0, 1.050416, 136.783045, 116.500801)">
      <stop stop-color="#BBBBBB" stop-opacity="0.1"/>
      <stop offset="1" stop-opacity="0.1"/>
    </linearGradient>
  </defs>
  <path d="M 258.329 117.115 L 167.329 117.115 L 167.329 149.115 L 258.329 149.115 C 261.09 149.115 263.329 146.877 263.329 144.115 L 263.329 122.115 C 263.329 119.354 261.09 117.115 258.329 117.115 Z" fill="#0F1418"/>
  <path d="M 167.915 117.115 L 141.915 117.115 C 139.153 117.115 136.915 119.395 136.915 122.207 L 136.915 144.61 C 136.915 147.421 139.153 149.701 141.915 149.701 L 167.915 149.701 L 167.915 117.115 Z" style="fill: rgb(245, 245, 245);"/>
  <path d="M 257.948 116.502 L 141.749 116.502 C 139.006 116.502 136.783 118.854 136.783 121.754 L 136.783 144.863 C 136.783 147.763 139.006 150.115 141.749 150.115 L 257.948 150.115 C 260.69 150.115 262.914 147.763 262.914 144.863 L 262.914 121.754 C 262.914 118.854 260.69 116.502 257.948 116.502 Z" fill="url(#paint0_linear)" style=""/>
  <text style="fill: rgb(255, 255, 255); font-family: Calibri; font-size: 18px; font-weight: 700; white-space: pre;" x="171.889" y="138.043">Spring Boot</text>
  <path fill="#6DB33F" opacity="1.000000" stroke="none" d="M 144.624 139.646 C 143.76 138.041 142.907 136.463 142.055 134.884 C 141.577 133.994 141.574 133.099 142.051 132.21 C 143.373 129.758 144.694 127.307 146.025 124.86 C 146.498 123.994 147.213 123.541 148.165 123.541 C 150.83 123.541 153.496 123.541 156.162 123.541 C 157.112 123.542 157.825 123.997 158.297 124.865 C 159.623 127.299 160.941 129.739 162.254 132.179 C 162.74 133.078 162.747 133.993 162.261 134.893 C 160.942 137.347 159.619 139.796 158.288 142.243 C 157.813 143.114 157.073 143.568 156.143 143.574 C 153.491 143.595 150.838 143.593 148.186 143.574 C 147.256 143.568 146.519 143.121 146.038 142.252 C 145.564 141.397 145.106 140.533 144.624 139.646 M 148.299 128.572 C 147.018 129.828 146.354 131.388 146.37 133.24 C 146.395 135.755 147.866 137.971 150.051 138.878 C 152.231 139.786 154.677 139.184 156.317 137.337 C 158.62 134.741 158.303 130.482 155.645 128.308 C 155.264 127.995 154.923 127.97 154.619 128.228 C 154.205 128.578 154.252 129.155 154.714 129.565 C 156.006 130.707 156.557 132.16 156.292 133.939 C 156.019 135.797 154.623 137.277 152.845 137.621 C 151.124 137.954 149.338 137.065 148.448 135.431 C 147.559 133.799 147.714 131.688 148.843 130.275 C 149.076 129.983 149.363 129.74 149.625 129.474 C 149.949 129.145 149.985 128.709 149.716 128.361 C 149.467 128.038 149.051 127.977 148.704 128.224 C 148.577 128.316 148.46 128.428 148.299 128.572 M 152.96 133.094 C 152.96 131.355 152.962 129.615 152.96 127.873 C 152.958 127.24 152.64 126.85 152.13 126.844 C 151.625 126.838 151.271 127.229 151.269 127.845 C 151.26 129.586 151.261 131.326 151.269 133.066 C 151.271 133.627 151.611 134.029 152.07 134.061 C 152.527 134.091 152.877 133.74 152.96 133.094 Z" style=""/>
  <path fill="#FDFEFC" opacity="1.000000" stroke="none" d="M 148.318 128.551 C 148.46 128.428 148.577 128.316 148.704 128.224 C 149.051 127.977 149.467 128.038 149.716 128.361 C 149.985 128.709 149.949 129.145 149.625 129.474 C 149.363 129.74 149.076 129.983 148.843 130.275 C 147.714 131.688 147.559 133.799 148.448 135.431 C 149.338 137.065 151.124 137.954 152.845 137.621 C 154.623 137.277 156.019 135.797 156.292 133.939 C 156.557 132.16 156.006 130.707 154.714 129.565 C 154.252 129.155 154.205 128.578 154.619 128.228 C 154.923 127.97 155.264 127.995 155.645 128.308 C 158.303 130.482 158.62 134.741 156.317 137.337 C 154.677 139.184 152.231 139.786 150.051 138.878 C 147.866 137.971 146.395 135.755 146.37 133.24 C 146.354 131.388 147.018 129.828 148.318 128.551 Z" style=""/>
  <path fill="#FCFDFB" opacity="1.000000" stroke="none" d="M 152.96 133.133 C 152.877 133.74 152.527 134.091 152.07 134.061 C 151.611 134.029 151.271 133.627 151.269 133.066 C 151.261 131.326 151.26 129.586 151.269 127.845 C 151.271 127.229 151.625 126.838 152.13 126.844 C 152.64 126.85 152.958 127.24 152.96 127.873 C 152.962 129.615 152.96 131.355 152.96 133.133 Z" style=""/>
</svg>